<svg
  xmlns="http://www.w3.org/2000/svg"
  fill="none"
  aria-hidden="true"
  viewBox="0 0 24 24"
>
  <path
    fill="currentColor"
    fill-rule="evenodd"
    d="M21.93 16.123a5.959 5.959 0 0 1-1.615 4.189 5.912 5.912 0 0 1-4.19 1.615c-1.651.094-6.6.094-8.25 0a5.964 5.964 0 0 1-4.19-1.615 5.92 5.92 0 0 1-1.615-4.189c-.093-1.651-.093-6.6 0-8.25a5.942 5.942 0 0 1 1.615-4.19 5.946 5.946 0 0 1 4.19-1.61c1.651-.094 6.6-.094 8.25 0a5.955 5.955 0 0 1 4.19 1.615 5.92 5.92 0 0 1 1.615 4.189c.093 1.651.093 6.595 0 8.246ZM20.2 12c0-1.455.12-4.578-.4-5.894a3.372 3.372 0 0 0-1.9-1.9c-1.312-.517-4.439-.4-5.894-.4s-4.578-.121-5.894.4a3.375 3.375 0 0 0-1.9 1.9c-.517 1.312-.4 4.439-.4 5.894s-.121 4.578.4 5.894a3.378 3.378 0 0 0 1.9 1.9c1.312.517 4.44.4 5.894.4 1.454 0 4.578.121 5.894-.4a3.375 3.375 0 0 0 1.9-1.9c.519-1.312.4-4.439.4-5.894Zm-3.07 0A5.127 5.127 0 1 1 12 6.873 5.119 5.119 0 0 1 17.129 12h.001Zm-1.794 0a3.333 3.333 0 1 0-6.664 0 3.333 3.333 0 0 0 6.663 0h.001Zm2-4.141a1.2 1.2 0 1 1 1.2-1.2 1.193 1.193 0 0 1-1.197 1.2h-.003Z"
    clip-rule="evenodd"
  />
</svg>