<svg xmlns="http://www.w3.org/2000/svg" class="svg-icon svg-icon-maturity-rating-8628"
  viewBox="0 0 158 100">
  <rect width="158" height="100" fill="#FF091B" rx="16.667" />
  <path fill="#FFF"
    d="M43.867 74.25V26.983L24 32.583v7.8l11.067-3.4V74.25h8.8zm33.466 1c3.378 0 6.434-.522 9.167-1.567 2.733-1.044 4.889-2.589 6.467-4.633 1.577-2.044 2.366-4.533 2.366-7.467 0-2.622-.833-4.966-2.5-7.033-1.666-2.067-3.9-3.522-6.7-4.367 2.49-.844 4.4-2.189 5.734-4.033 1.333-1.844 2-3.944 2-6.3 0-2.533-.7-4.778-2.1-6.733-1.4-1.956-3.345-3.49-5.834-4.6-2.489-1.111-5.355-1.667-8.6-1.667-3.244 0-6.11.556-8.6 1.667-2.489 1.11-4.433 2.644-5.833 4.6-1.4 1.955-2.1 4.2-2.1 6.733 0 2.356.667 4.456 2 6.3 1.333 1.844 3.244 3.189 5.733 4.033-2.8.845-5.033 2.3-6.7 4.367-1.666 2.067-2.5 4.411-2.5 7.033 0 2.934.79 5.423 2.367 7.467 1.578 2.044 3.733 3.589 6.467 4.633 2.733 1.045 5.789 1.567 9.166 1.567zm0-28.2c-2.222 0-4.122-.578-5.7-1.733-1.577-1.156-2.366-2.756-2.366-4.8 0-1.956.777-3.511 2.333-4.667 1.556-1.156 3.467-1.733 5.733-1.733 2.267 0 4.178.577 5.734 1.733 1.555 1.156 2.333 2.711 2.333 4.667 0 2.044-.789 3.644-2.367 4.8-1.577 1.155-3.477 1.733-5.7 1.733zm0 20.733c-2.489 0-4.633-.577-6.433-1.733-1.8-1.156-2.7-2.889-2.7-5.2 0-2.133.9-3.811 2.7-5.033 1.8-1.223 3.944-1.834 6.433-1.834 2.49 0 4.634.611 6.434 1.834 1.8 1.222 2.7 2.9 2.7 5.033 0 2.311-.9 4.044-2.7 5.2-1.8 1.156-3.945 1.733-6.434 1.733zm44.534.6V55.517h12v-7.134h-12V35.517h-7.4v12.866h-12v7.134h12v12.866h7.4z" />
</svg>
