<svg xmlns="http://www.w3.org/2000/svg" class="svg-icon svg-icon-maturity-rating-8603"
  viewBox="0 0 124 100">
  <rect width="124" height="100" fill="#01A221" rx="16.667" />
  <path fill="#FFF"
    d="M42.6 75.25c3.733 0 7-.989 9.8-2.967 2.8-1.977 4.967-4.777 6.5-8.4 1.533-3.622 2.3-7.9 2.3-12.833 0-4.889-.767-9.156-2.3-12.8s-3.7-6.456-6.5-8.433c-2.8-1.978-6.067-2.967-9.8-2.967-3.733 0-7 .989-9.8 2.967-2.8 1.977-4.967 4.789-6.5 8.433-1.533 3.644-2.3 7.911-2.3 12.8 0 4.933.767 9.211 2.3 12.833 1.533 3.623 3.7 6.423 6.5 8.4 2.8 1.978 6.067 2.967 9.8 2.967zm0-7.867c-2.933 0-5.278-1.444-7.033-4.333-1.756-2.889-2.634-6.889-2.634-12s.878-9.111 2.634-12c1.755-2.889 4.1-4.333 7.033-4.333 2.933 0 5.278 1.444 7.033 4.333 1.756 2.889 2.634 6.889 2.634 12s-.878 9.111-2.634 12c-1.755 2.889-4.1 4.333-7.033 4.333zm44.533 1V55.517h12v-7.134h-12V35.517h-7.4v12.866h-12v7.134h12v12.866h7.4z" />
</svg>
