<svg
  xmlns="http://www.w3.org/2000/svg"
  viewBox="0 0 158 100"
>
  <rect width="158" height="100" fill="#FF5B20" rx="16.667" />
  <path
    fill="#FFF"
    d="M43.867 74.25V26.983L24 32.583v7.8l11.067-3.4V74.25h8.8zm34.8 1c2.933 0 5.689-.656 8.266-1.967 2.578-1.31 4.667-3.189 6.267-5.633 1.6-2.444 2.4-5.333 2.4-8.667 0-2.933-.689-5.555-2.067-7.866A15.175 15.175 0 0 0 88 45.65c-2.311-1.333-4.867-2-7.667-2-2.755 0-5.155.556-7.2 1.667a13.256 13.256 0 0 0-4.933 4.6c.133-5.2 1.122-9.056 2.967-11.567 1.844-2.511 4.344-3.767 7.5-3.767 3.51 0 5.91 1.267 7.2 3.8h9c-1.156-3.689-3.078-6.533-5.767-8.533-2.689-2-6.211-3-10.567-3-3.733 0-7.033.944-9.9 2.833-2.866 1.89-5.1 4.611-6.7 8.167-1.6 3.556-2.4 7.867-2.4 12.933 0 7.823 1.7 13.856 5.1 18.1 3.4 4.245 8.078 6.367 14.034 6.367zm-.467-7.733c-1.556 0-3-.356-4.333-1.067-1.334-.711-2.39-1.689-3.167-2.933-.778-1.245-1.167-2.645-1.167-4.2 0-1.6.39-3.023 1.167-4.267a8.55 8.55 0 0 1 3.133-2.967c1.311-.733 2.767-1.1 4.367-1.1 2.444 0 4.5.8 6.167 2.4 1.666 1.6 2.5 3.578 2.5 5.934 0 2.4-.834 4.366-2.5 5.9-1.667 1.533-3.723 2.3-6.167 2.3zm43.667.866V55.517h12v-7.134h-12V35.517h-7.4v12.866h-12v7.134h12v12.866h7.4z"
  />
</svg>
