<svg xmlns="http://www.w3.org/2000/svg" class="svg-icon svg-icon-maturity-rating-8604"
  viewBox="0 0 158 100">
  <rect width="158" height="100" fill="#FFFF37" rx="16.667" />
  <path
    d="M43.867 74.25V26.983L24 32.583v7.8l11.067-3.4V74.25h8.8zm50.266 0v-7.733H72.6l11.8-10.134c2.933-2.489 5.211-4.877 6.833-7.166 1.623-2.29 2.434-4.945 2.434-7.967 0-2.844-.7-5.344-2.1-7.5-1.4-2.156-3.345-3.844-5.834-5.067-2.489-1.222-5.333-1.833-8.533-1.833-3.111 0-5.889.6-8.333 1.8-2.445 1.2-4.423 2.856-5.934 4.967-1.51 2.11-2.466 4.544-2.866 7.3h8.6c.355-1.823 1.255-3.311 2.7-4.467 1.444-1.156 3.322-1.733 5.633-1.733 2.4 0 4.289.644 5.667 1.933 1.377 1.289 2.066 2.867 2.066 4.733 0 1.645-.433 3.134-1.3 4.467-.866 1.333-2.477 3.044-4.833 5.133L60.333 67.117v7.133h33.8zm27.734-5.867V55.517h12v-7.134h-12V35.517h-7.4v12.866h-12v7.134h12v12.866h7.4z" />
</svg>
