<svg
	xmlns="http://www.w3.org/2000/svg"
	width="24"
	height="24"
	version="1.2"
	viewBox="0 0 72 72"
>
	<path
		fill="currentColor"
		d="M24.5 5.4q0-1.1.4-2.1t1.2-1.7q.8-.8 1.7-1.2 1-.4 2.1-.4h4.8c6.2 0 11.9 3.9 13.4 10.3.8 3.4 1.6 7.7 1.6 11.3q0 1.8-.2 3.6h5.6c1.7 0 3.4.3 5 1s3 1.7 4.2 2.9c1.1 1.3 2 2.7 2.6 4.4.6 1.6.9 3.3.8 5 1.1 1.9 1.8 4.1 1.8 6.5 0 2.4-.7 4.6-1.8 6.5q.1 1.4-.1 2.7-.2 1.3-.7 2.5-.5 1.3-1.2 2.4-.8 1.1-1.7 2c-.2 1.5-.7 3-1.4 4.3-.7 1.3-1.7 2.5-2.8 3.5-1.2 1-2.5 1.8-3.9 2.3-1.4.5-2.9.8-4.4.8H37.6c-4.3 0-8.5-.7-12.6-2l-5.3-1.8q-1.2-.4-2.4-.7-1.2-.3-2.4-.5-1.3-.2-2.5-.3-1.2-.1-2.5-.1-1.4 0-2.6-.5Q6 65.5 5 64.5q-1-.9-1.6-2.2-.5-1.3-.5-2.7V42.3q0-1.2.4-2.3.4-1.1 1.1-2 .7-1 1.6-1.6 1-.7 2.1-1l7.4-2.1.6-.2q.3-.2.5-.4.3-.2.5-.4.3-.3.4-.6l7-11.1zm7.2 15.1c0 1.4-.4 2.7-1.1 3.8l-7 11.2q-.5.9-1.2 1.6-.6.7-1.4 1.3-.8.6-1.7 1.1-.9.4-1.9.7l-7.3 2.1v17.1c4 0 8 .6 11.8 1.9l5.4 1.8q1.2.4 2.5.7 1.3.3 2.6.5 1.3.3 2.6.4 1.3.1 2.6.1h13.9q1.1 0 2.1-.4 1-.5 1.7-1.2.8-.8 1.2-1.8.4-1 .4-2v-1.8l1.5-1.1q.6-.5 1-1.1.5-.6.7-1.3.3-.7.4-1.4.1-.8-.1-1.5l-.3-1.6 1-1.3q.3-.3.5-.7.3-.4.4-.9.2-.4.2-.8.1-.5.1-.9 0-.5-.1-.9 0-.5-.2-.9-.1-.4-.4-.8-.2-.4-.5-.8l-1-1.3.3-1.6q.2-1.1-.1-2.3-.3-1.2-1-2.1-.8-.9-1.9-1.4-1.1-.5-2.3-.5H40.5l1.1-4.5.4-1.6q.2-.8.3-1.6.1-.7.1-1.5.1-.8.1-1.6c0-2.8-.6-6.4-1.4-9.7-.6-2.7-3.2-4.7-6.4-4.7h-3z"
	/>
</svg>
