<svg
  xmlns="http://www.w3.org/2000/svg"
  fill="none"
  aria-hidden="true"
  viewBox="0 0 24 24"
>
  <path
    fill="currentColor"
    fill-rule="evenodd"
    d="m17.313 2.504.094.752c.062.494.062.994 0 1.488L17.125 7H21.5a1.5 1.5 0 0 1 .83 2.75h.17a1.5 1.5 0 0 1 .287 2.973A1.499 1.499 0 0 1 22 15.5h-.382A1.5 1.5 0 0 1 20.5 18h-2.58c.052-.241.08-.492.08-.75 0-.96-.386-1.83-1.012-2.461A3.5 3.5 0 0 0 13.5 11h-2.11l.002-.008a7.997 7.997 0 0 0 0-1.984l-.094-.752-1.233.154 1.233-.154a4.926 4.926 0 0 0-.04-.263 2 2 0 0 0 .65-.645l1.94-3.105a1 1 0 0 0 .152-.53V.476c0-.263.213-.476.476-.476a2.859 2.859 0 0 1 2.837 2.504Zm-8 6 .094.752a6 6 0 0 1 0 1.488L9.125 13H13.5a1.5 1.5 0 0 1 .83 2.75h.17a1.5 1.5 0 0 1 .287 2.973A1.5 1.5 0 0 1 14 21.5h-.382A1.5 1.5 0 0 1 12.5 24H8.016a7.59 7.59 0 0 1-3.766-1l-.173-.099A6.838 6.838 0 0 0 .684 22 .684.684 0 0 1 0 21.316v-5.562a1 1 0 0 1 .725-.961l2.036-.582a2 2 0 0 0 1.146-.863l1.941-3.105A1 1 0 0 0 6 9.713V6.476C6 6.213 6.213 6 6.476 6a2.859 2.859 0 0 1 2.837 2.504Z"
    clip-rule="evenodd"
  />
</svg>