<svg
	xmlns="http://www.w3.org/2000/svg"
	width="24"
	height="24"
	version="1.2"
	viewBox="0 0 72 72"
>
	<path
		fill="currentColor"
		d="M47.8 66.3q0 1.1-.4 2.1t-1.2 1.7q-.7.8-1.7 1.2-1 .4-2.1.4h-4.8c-6.1 0-11.8-3.9-13.3-10.2-.8-3.4-1.6-7.7-1.6-11.3q0-1.8.3-3.6h-5.7c-1.7 0-3.4-.3-4.9-1-1.6-.7-3-1.7-4.2-2.9-1.1-1.2-2-2.7-2.6-4.3-.6-1.6-.9-3.3-.8-5q-.4-.7-.8-1.5-.3-.8-.5-1.6-.3-.9-.4-1.7-.1-.9-.1-1.7c0-2.4.7-4.6 1.8-6.5q-.1-1.3.1-2.6.3-1.4.7-2.6.5-1.2 1.2-2.3.8-1.1 1.7-2.1c.2-1.5.7-2.9 1.4-4.2.7-1.4 1.7-2.5 2.8-3.5 1.1-1 2.4-1.8 3.8-2.3 1.4-.5 2.9-.8 4.4-.8h13.9c4.3 0 8.5.7 12.5 2l5.4 1.8c3.1 1 6.3 1.6 9.6 1.6 3.9 0 7 3.1 7 7v17.2q0 1.1-.3 2.2-.4 1.1-1.1 2.1-.7.9-1.7 1.6-1 .6-2.1 1l-7.3 2q-.3.1-.6.3-.3.1-.5.3-.3.2-.5.5-.2.2-.4.5l-7 11.1zm-7.2-15.1c0-1.3.4-2.6 1.1-3.8l7-11.1q.5-.9 1.2-1.6.7-.7 1.4-1.3.8-.6 1.7-1 .9-.5 1.9-.8l7.3-2V12.5q-1.5 0-3-.1t-3-.4q-1.5-.2-2.9-.6-1.5-.3-2.9-.8L45 8.8q-1.2-.4-2.5-.7-1.2-.3-2.5-.5t-2.6-.3q-1.3-.1-2.6-.1H20.9q-1 0-2 .4t-1.8 1.1q-.7.8-1.1 1.8-.4 1-.5 2v1.8l-1.4 1.1q-.6.5-1 1.1-.5.6-.8 1.2-.2.7-.3 1.5-.1.7 0 1.5l.3 1.6-1 1.2q-.2.4-.5.8-.2.4-.3.8-.2.4-.3.9v.9c0 1.3.4 2.4 1.1 3.3l1 1.3-.3 1.6q-.2 1.2.1 2.3.3 1.2 1.1 2.1.8.9 1.9 1.4 1 .5 2.2.5h14.6l-1.1 4.5-.4 1.6q-.2.7-.3 1.5-.1.8-.1 1.6-.1.8-.1 1.6c0 2.8.6 6.3 1.4 9.6.6 2.7 3.2 4.7 6.3 4.7h3z"
	/>
</svg>
