<svg
  xmlns="http://www.w3.org/2000/svg"
  fill="none"
  aria-hidden="true"
  viewBox="0 0 24 24"
>
  <path
    fill="currentColor"
    fill-rule="evenodd"
    d="M20.768 8.207A12.654 12.654 0 0 1 8.027 20.948a12.653 12.653 0 0 1-6.876-2.01c.359.04.72.058 1.081.055a8.966 8.966 0 0 0 5.56-1.913A4.486 4.486 0 0 1 3.6 13.974c.28.045.563.068.846.07a4.72 4.72 0 0 0 1.178-.153A4.478 4.478 0 0 1 2.038 9.5v-.059c.62.347 1.314.542 2.024.569a4.488 4.488 0 0 1-1.387-5.99 12.727 12.727 0 0 0 9.234 4.686 5.002 5.002 0 0 1-.109-1.025 4.482 4.482 0 0 1 7.75-3.064 8.817 8.817 0 0 0 2.84-1.082A4.464 4.464 0 0 1 20.421 6c.89-.1 1.759-.333 2.579-.69a9.644 9.644 0 0 1-2.246 2.315c.014.195.014.389.014.582Z"
    clip-rule="evenodd"
  />
</svg>